<svg width="1440" height="945" viewBox="0 0 1440 945" fill="none" xmlns="http://www.w3.org/2000/svg">
<path opacity="0.5" d="M1130 260.926C1021.32 373.523 1063.36 512.426 1000.5 666.426C974.378 730.426 885.423 850.186 858 909.426C804.5 1025 929.32 1146.1 1019.86 1235.47C1063.03 1278.1 1112.22 1316.14 1168.33 1330.1C1211.48 1340.83 1256.09 1336.74 1299.87 1332.5L2066.88 1259.22C2152.52 1251.03 2247.23 1237.84 2301.74 1165.27C2339.31 1115.31 2349.5 1047.07 2357.4 982.128C2367.1 902.33 2374.41 816.013 2338.62 744.781C2297.72 663.278 2211.92 623.723 2154.03 555.788C2060.11 445.737 2042.96 266.053 1929.32 182.292C1876.27 143.2 1810.62 132.622 1747.51 130.539C1628.53 126.591 1507 65.4258 1399.5 130.539C1289.9 196.923 1225.56 161.926 1130 260.926Z" fill="#018ADA"/>
<path opacity="0.5" d="M189 51.0001C100.5 -2.49999 -19.0834 -9.69671 -82.5 12C-111.589 26.6327 -155.409 131.752 -193.459 348.921C-241.022 620.383 -157.56 967.5 -82.5 967.5C30.5 967.5 67.5 862.5 82 827.5C96.5 792.5 84.0414 715.067 201.5 652.5C295.467 602.446 286 458.5 321 409.5C364.271 348.921 450.5 365.421 535 288C635.843 195.605 553.914 135.742 433 119.5C332.5 106 280.59 106.368 189 51.0001Z" fill="#FFA200"/>
</svg>
