<svg width="55" height="55" viewBox="0 0 55 55" fill="none" xmlns="http://www.w3.org/2000/svg">
<path d="M27.5 5.15625C23.0808 5.15625 18.7609 6.46669 15.0865 8.92185C11.4121 11.377 8.54822 14.8666 6.85708 18.9494C5.16593 23.0322 4.72345 27.5248 5.58559 31.8591C6.44773 36.1933 8.57576 40.1746 11.7006 43.2994C14.8254 46.4243 18.8067 48.5523 23.141 49.4144C27.4752 50.2766 31.9678 49.8341 36.0506 48.1429C40.1334 46.4518 43.623 43.5879 46.0782 39.9135C48.5333 36.2391 49.8438 31.9192 49.8438 27.5C49.8375 21.576 47.4814 15.8964 43.2925 11.7075C39.1036 7.51858 33.424 5.16251 27.5 5.15625ZM15.9156 42.4316C17.159 40.4871 18.8719 38.8868 20.8964 37.7783C22.9209 36.6697 25.1919 36.0887 27.5 36.0887C29.8081 36.0887 32.0791 36.6697 34.1036 37.7783C36.1281 38.8868 37.841 40.4871 39.0844 42.4316C35.7722 45.0076 31.696 46.4061 27.5 46.4061C23.3041 46.4061 19.2278 45.0076 15.9156 42.4316ZM20.625 25.7813C20.625 24.4215 21.0282 23.0923 21.7837 21.9617C22.5391 20.8311 23.6128 19.9499 24.8691 19.4296C26.1253 18.9092 27.5076 18.7731 28.8413 19.0384C30.1749 19.3036 31.3999 19.9584 32.3614 20.9199C33.3229 21.8814 33.9776 23.1064 34.2429 24.44C34.5082 25.7736 34.372 27.156 33.8517 28.4122C33.3313 29.6684 32.4501 30.7422 31.3196 31.4976C30.189 32.253 28.8598 32.6563 27.5 32.6563C25.6766 32.6563 23.928 31.9319 22.6387 30.6426C21.3493 29.3533 20.625 27.6046 20.625 25.7813ZM41.6281 40.049C39.7112 37.2713 37.0158 35.1223 33.8809 33.8723C35.5648 32.5459 36.7937 30.7278 37.3964 28.6707C37.9992 26.6136 37.9459 24.4198 37.2441 22.3943C36.5422 20.3689 35.2266 18.6125 33.4803 17.3695C31.7339 16.1264 29.6436 15.4584 27.5 15.4584C25.3564 15.4584 23.2661 16.1264 21.5198 17.3695C19.7734 18.6125 18.4578 20.3689 17.756 22.3943C17.0541 24.4198 17.0008 26.6136 17.6036 28.6707C18.2064 30.7278 19.4352 32.5459 21.1192 33.8723C17.9842 35.1223 15.2888 37.2713 13.3719 40.049C10.9497 37.3252 9.36649 33.9592 8.813 30.3564C8.2595 26.7535 8.75929 23.0675 10.2522 19.7422C11.7451 16.4169 14.1674 13.594 17.2275 11.6135C20.2876 9.63294 23.8549 8.57924 27.5 8.57924C31.1451 8.57924 34.7125 9.63294 37.7725 11.6135C40.8326 13.594 43.255 16.4169 44.7478 19.7422C46.2407 23.0675 46.7405 26.7535 46.187 30.3564C45.6335 33.9592 44.0504 37.3252 41.6281 40.049Z" fill="#343330"/>
</svg>
